<svg preserveAspectRatio="xMidYMid meet" overflow="visible" style="display: block;" width="62.7068" height="37.1942" viewBox="0 0 62.7068 37.1942" fill="none" xmlns="http://www.w3.org/2000/svg">
<path id="Vector 155" d="M28.4647 29.6707C25.3929 30.1314 22.3885 29.9728 19.3035 30.2012C17.03 30.3686 14.7014 30.6496 12.4069 30.8297C10.8417 30.9292 9.33701 31.1316 7.29408 30.7834C6.64544 30.649 5.87469 30.4613 5.02135 29.8823C4.19036 29.3188 3.34628 28.3427 3.0068 27.1899C2.65572 26.0426 2.76928 24.9617 2.99652 24.0964C3.49446 22.3522 4.3115 21.1546 5.3796 19.9731C5.49698 19.8478 5.60807 19.7361 5.74447 19.6134C5.83382 19.5326 5.92927 19.4519 6.04272 19.3681C6.13347 19.3035 6.33546 19.1492 6.6632 19.0143C6.74628 18.9806 6.83932 18.9477 6.94567 18.9188C7.05604 18.8874 7.29347 18.8377 7.52451 18.836C7.99424 18.8121 8.6703 19.0291 9.0736 19.4138C9.48863 19.7855 9.66589 20.2282 9.7345 20.4584C9.79279 20.6529 9.81648 20.8117 9.82967 20.9487C9.85331 21.2476 9.83769 21.3492 9.82761 21.4889C9.8157 21.6185 9.79581 21.7444 9.78133 21.8215C9.64233 22.5147 9.47388 22.9286 9.30841 23.3766C7.7504 27.173 5.89779 30.4399 3.67654 33.7301C3.23194 34.3701 2.76838 35.0024 2.24805 35.6286L2.38281 34.0725C2.13581 33.7166 2.12882 33.8677 2.265 33.9145C2.39564 33.9835 2.6034 34.0571 2.82827 34.12C3.28005 34.2464 3.8037 34.3429 4.32874 34.425C5.38881 34.5881 6.49271 34.7005 7.60133 34.8021C8.38555 34.8735 9.17856 34.9373 9.97087 34.997C12.53 35.1886 15.1006 35.3438 17.6729 35.4941C18.8005 35.5596 19.9266 35.6235 21.0557 35.6867C21.8979 35.734 22.7396 35.7809 23.5818 35.8277C23.6988 35.8343 23.8112 35.8632 23.8942 35.9096C23.9772 35.9561 24.0242 36.016 24.0244 36.0782C24.0246 36.1405 23.978 36.201 23.8952 36.2484C23.8125 36.2956 23.7004 36.3254 23.5834 36.333C22.7347 36.3881 21.8863 36.443 21.0372 36.4975C20.0938 36.5579 19.1527 36.6178 18.2098 36.676C18.0594 36.4212 17.8568 36.2283 17.4737 36.1437C17.2789 36.1006 16.9947 36.0831 16.7855 36.1308C16.5985 36.1737 16.4561 36.2499 16.3218 36.3224C16.1812 36.3983 16.049 36.4703 15.8762 36.4957C15.585 36.5389 15.3067 36.6472 15.0166 36.7607C14.911 36.802 14.8018 36.8441 14.6908 36.8839C13.7905 36.9342 12.886 36.9818 11.9843 37.0251C11.6348 36.9949 11.3145 36.9695 11.043 36.9768C10.7977 36.9832 10.5763 37.0342 10.3502 37.0979C10.2089 37.1036 10.0724 37.1093 9.92979 37.1147C9.12936 37.1456 8.32511 37.1714 7.52197 37.1882C7.41508 37.1903 7.30949 37.1923 7.2052 37.1942C6.49579 37.0993 5.75441 37.0036 4.77637 36.9016C4.3535 36.8568 3.93519 36.7812 3.53106 36.6967C2.93144 36.5704 2.3688 36.4314 1.81355 36.3099C1.43925 36.2133 1.03242 36.0824 0.554862 35.6015C0.447527 35.4855 0.338784 35.3386 0.256962 35.1622L0 34.6043L0.341185 34.1896C0.575339 33.9398 0.796217 33.6595 0.911829 33.3436C0.998497 33.1053 1.05745 32.8783 1.11467 32.6605C1.19745 32.3265 1.27309 32.0202 1.40185 31.7956C1.65104 31.3613 1.7973 30.9487 1.92273 30.5848C2.07554 30.1432 2.1961 29.7751 2.42595 29.5138C2.4606 29.4745 2.50217 29.4305 2.54908 29.3808C2.79613 29.1188 3.19252 28.6945 3.48248 27.9397C3.58502 27.6721 3.63773 27.3955 3.68559 27.1287C3.75759 26.7355 3.82137 26.3598 4.03322 26.02C4.06469 25.9697 4.11739 25.9266 4.16535 25.8875C4.22609 25.8383 4.27998 25.7931 4.27217 25.7483C4.2493 25.6167 4.2454 25.4243 4.23822 25.2189C4.23203 25.07 4.22914 24.9028 4.21444 24.752C4.58608 23.8138 4.94783 22.8479 5.21426 21.9603C5.27512 21.7563 5.33036 21.5539 5.36652 21.392C5.40768 21.2312 5.42774 21.011 5.40261 21.1698C5.4337 21.2133 5.43512 21.3349 5.54473 21.6683C5.58808 21.783 5.74553 22.281 6.2293 22.6711C6.71025 23.0929 7.49295 23.1981 7.87598 23.1007C8.10871 23.0528 8.14751 23.0238 8.23758 22.9868C8.31532 22.9512 8.37531 22.9162 8.42311 22.8847C8.51771 22.8219 8.56953 22.7693 8.58073 22.7476C8.61735 22.6928 8.61169 22.6664 8.58857 22.6617C8.5595 22.6519 8.51101 22.6685 8.44453 22.7149C8.26729 22.8358 8.06468 23.0465 7.84685 23.3121C7.62726 23.5811 7.38668 23.909 7.13767 24.2872C6.6523 25.0023 6.65636 25.7453 6.81624 25.934C6.84613 25.9818 6.87945 26.0221 6.91812 26.0597C7.0145 26.1483 7.11372 26.2273 7.40299 26.3655C7.46317 26.3696 7.64116 26.4269 8.01451 26.4627C8.98276 26.5488 10.1714 26.4842 11.003 26.4548C11.4363 26.4363 11.804 26.418 12.0865 26.3959C12.1454 26.3913 12.2063 26.3867 12.2692 26.382C12.6946 26.3492 13.2353 26.3122 13.7412 26.2735C14.6684 26.204 15.5935 26.124 16.1206 26.0514C16.3048 26.0258 16.4993 25.9958 16.7112 25.963C17.3076 25.8713 18.0011 25.7601 18.9785 25.6491C20.0037 25.5317 20.6343 25.5058 21.306 25.5072C21.5806 25.5075 21.8189 25.5833 22.0729 25.6604C22.4296 25.7702 22.8163 25.8825 23.2947 25.7892C23.4071 25.7673 23.5261 25.7318 23.6507 25.6943C23.8795 25.6256 24.1277 25.5504 24.3907 25.543C24.4829 25.5404 24.5643 25.558 24.6445 25.5751C24.7328 25.5939 24.8194 25.6123 24.9144 25.6031C25.2692 25.5689 25.615 25.5218 25.9234 25.4789C26.319 25.4237 26.6468 25.3762 26.8561 25.373C27.2278 25.3674 27.6284 25.2778 28.0257 25.1861C28.3307 25.1158 28.6395 25.0434 28.9438 25.0054C29.8091 24.8979 30.9858 24.6486 32.1828 24.3261C32.6355 24.2042 33.0332 24.1959 33.5461 24.1816C33.8652 24.1725 34.2269 24.1615 34.6717 24.117C34.9239 24.0917 35.1234 23.9976 35.3077 23.9102C35.4775 23.8297 35.6343 23.7548 35.8086 23.7437C35.9624 23.7338 36.0753 23.8029 36.1828 23.8684C36.3023 23.9413 36.4152 24.0098 36.5693 23.9592C36.6512 23.9324 36.7438 23.8664 36.8536 23.7878C36.897 23.7567 36.9434 23.7237 36.9927 23.6902C36.9938 23.7087 36.9966 23.7249 36.9992 23.7371C37.0176 23.823 37.1879 23.8335 37.3554 23.843C37.4222 23.8469 37.4888 23.8505 37.5447 23.859C37.7505 23.8903 38.1121 23.8214 38.3847 23.7546C38.5001 23.7265 38.611 23.7286 38.7405 23.7308C38.8553 23.7328 38.9856 23.7347 39.1461 23.7153C39.2377 23.7042 39.312 23.7124 39.3736 23.7193C39.4182 23.7244 39.4561 23.7287 39.4892 23.7241C39.5179 23.7202 39.5345 23.6902 39.5531 23.6565C39.5665 23.6322 39.5811 23.6059 39.602 23.5859C39.6519 23.5381 39.7241 23.5096 39.7791 23.5074C39.8045 23.5064 39.826 23.5111 39.8473 23.5159C39.8722 23.5214 39.8969 23.527 39.9282 23.5234C40.0716 23.5065 40.1996 23.4446 40.3322 23.3801C40.4778 23.3091 40.6308 23.2346 40.8159 23.2125C40.8741 23.2056 40.9387 23.2076 41.0012 23.2096C41.0667 23.2116 41.1302 23.2134 41.1815 23.2047C41.39 23.1695 41.5644 23.0573 41.724 22.9537C41.8303 22.8848 41.9294 22.8199 42.0297 22.7834C42.2128 22.7167 42.2925 22.6157 42.351 22.5412C42.3813 22.5027 42.4059 22.471 42.4366 22.4548C42.4671 22.4483 42.4981 22.4421 42.5285 22.4362C42.5572 22.4337 42.5869 22.4311 42.6128 22.4218C42.6148 22.4211 42.6166 22.4202 42.6186 22.4195C42.7896 22.3893 42.9595 22.3668 43.1281 22.344C43.505 22.2933 43.8841 22.2384 44.2512 22.0896C44.3304 22.0575 44.4037 22.0017 44.478 21.945C44.5691 21.8754 44.6618 21.8042 44.7692 21.7726C45.0241 21.6975 45.3003 21.6606 45.5687 21.6237C45.9738 21.5678 46.3642 21.5108 46.6785 21.3118C46.7818 21.2463 46.8758 21.1647 46.9693 21.0825C47.0215 21.0367 47.0737 20.9906 47.1273 20.9472C47.1286 20.9906 47.135 21.0295 47.141 21.0658C47.1533 21.1406 47.1638 21.2046 47.123 21.2771C47.0269 21.4485 46.926 21.6718 46.9872 21.7862C47.0038 21.8173 47.013 21.8552 47.022 21.8935C47.0444 21.9896 47.0672 22.0879 47.2151 22.0826C47.3147 22.0791 47.5679 22.0611 47.6866 21.9369C47.7125 21.9098 47.7203 21.8723 47.7291 21.8307C47.7448 21.7558 47.7635 21.6672 47.8932 21.5992C47.915 21.5878 47.9389 21.5758 47.9637 21.5637C48.0626 21.5155 48.1727 21.4613 48.1978 21.3959C48.226 21.3209 48.1906 21.261 48.1495 21.1912C48.0959 21.1003 48.0327 20.9922 48.0849 20.8122C48.0952 20.7766 48.1315 20.7516 48.1589 20.7328C48.1781 20.7195 48.1928 20.7091 48.1912 20.7002C48.1893 20.69 48.1748 20.6729 48.1565 20.6513C48.0915 20.575 47.9796 20.4416 48.1958 20.3493C48.2542 20.3243 48.3247 20.3049 48.3877 20.2874C48.4807 20.2617 48.5576 20.2401 48.5574 20.211C48.5573 20.2 48.5558 20.1887 48.5537 20.1771C48.6255 20.1517 48.6971 20.1262 48.7686 20.1006C48.8709 20.0937 48.9963 20.0394 49.1515 19.9708C49.1891 19.9541 49.2299 19.9362 49.2718 19.9181C49.4137 19.8657 49.555 19.8128 49.6956 19.7595C49.8104 19.7249 49.9352 19.6948 50.0714 19.6733C50.345 19.63 50.6008 19.6426 50.8596 19.6492C50.9678 19.6524 51.0751 19.6552 51.1817 19.6534C51.1497 19.6743 51.1213 19.6946 51.1011 19.7136C50.9624 19.8439 50.9448 19.9809 50.9285 20.1073C50.9175 20.1913 50.9073 20.2705 50.8623 20.3389C50.7797 20.4642 50.8294 20.5444 50.8665 20.6037C50.8857 20.6345 50.9012 20.6598 50.8928 20.6827C50.886 20.7012 50.8598 20.7202 50.8327 20.7398C50.809 20.7569 50.7846 20.7747 50.7719 20.7927C50.6177 21.0113 50.7123 21.0563 50.852 21.1211C50.9289 21.1569 51.0191 21.1987 51.0881 21.2793C51.1557 21.367 51.1609 21.3994 51.0667 21.4884C51.1754 21.4982 51.2841 21.5077 51.3929 21.5169C51.4256 21.4983 51.4374 21.4563 51.451 21.3894C51.4759 21.2697 51.6735 21.1394 51.8261 21.0365C51.8969 20.989 51.9581 20.9474 51.989 20.916C52.1524 20.7491 52.0459 20.6755 51.9533 20.6105C51.9022 20.5747 51.8552 20.5414 51.8584 20.4971C51.8598 20.4781 51.8406 20.4691 51.8213 20.4598C51.8063 20.4525 51.791 20.4453 51.7848 20.4332C51.7402 20.3457 51.8245 20.225 51.9013 20.1128C51.9453 20.0485 51.9868 19.987 52.0015 19.9363C52.006 19.9208 52.0084 19.9061 52.0104 19.892C52.0134 19.8713 52.0164 19.8515 52.0263 19.831C52.0488 19.7843 52.1144 19.728 52.1859 19.6662C52.2225 19.6346 52.2607 19.6015 52.2964 19.567C52.3423 19.5226 52.3444 19.478 52.3467 19.4314C52.3484 19.3984 52.3504 19.3644 52.3674 19.3285C52.3981 19.2637 52.4927 19.1979 52.5799 19.1365C52.6178 19.1098 52.6544 19.0837 52.6838 19.0592C52.6958 19.0492 52.6992 19.04 52.6964 19.0311C52.8355 18.9242 52.9659 18.8199 53.0914 18.7177C53.7257 18.2002 54.2478 17.7522 55.1644 17.2852C55.3369 17.1967 55.5046 17.083 55.6717 16.9536C56.253 16.6111 56.811 16.2574 57.3602 15.8769C57.5178 15.8654 57.6899 15.8232 57.8735 15.7478C57.8775 15.7462 57.8815 15.7445 57.8856 15.7428C58.1234 15.6849 58.3421 15.4824 58.5735 15.1908C58.7455 14.9749 58.9336 14.6979 59.1606 14.3711C59.5463 13.8118 59.8856 13.1563 60.1701 12.378C60.4553 11.6019 60.7097 10.6737 60.8589 10.0088C60.9412 9.64595 61.0923 9.27817 61.2291 8.93018C61.4215 8.44184 61.5849 7.9958 61.4935 7.6959C61.4643 7.60016 61.4031 7.50297 61.3433 7.40882C61.3007 7.34175 61.2591 7.27587 61.2299 7.21314C61.2631 7.06153 61.2955 6.90908 61.3274 6.75705C61.4524 6.49637 61.601 6.08143 61.5472 5.6562C61.5772 5.49777 61.6063 5.34173 61.6347 5.18707C61.6952 4.85316 61.7526 4.52416 61.8074 4.19516C61.8254 4.08852 61.8435 3.97646 61.8611 3.86726C61.8613 3.86622 61.8615 3.86518 61.8617 3.86414C61.8971 3.64465 61.9317 3.42108 61.9648 3.20207C61.979 3.10794 61.9927 3.01777 62.0065 2.92159C62.0415 2.67873 62.0746 2.44558 62.1067 2.20401C62.1236 2.07734 62.1398 1.95634 62.1561 1.82644C62.1825 1.6155 62.2073 1.41818 62.2314 1.20482C62.2698 0.872416 62.3051 0.543037 62.336 0.202412C62.3411 0.147829 62.3562 0.0962225 62.3789 0.0585787C62.4016 0.0209532 62.4301 -3.93638e-05 62.4594 5.54147e-08C62.4887 8.64493e-05 62.5172 0.0212811 62.5397 0.0593101C62.5622 0.0973071 62.5766 0.149353 62.5809 0.204347C62.6068 0.547931 62.6277 0.881513 62.6448 1.21888C62.6551 1.43531 62.6647 1.63559 62.6722 1.85022C62.6769 1.98228 62.6812 2.10548 62.685 2.23462C62.6918 2.48084 62.6975 2.71918 62.7008 2.96752C62.7021 3.06573 62.7035 3.1581 62.7044 3.25447C62.7067 3.47938 62.7071 3.70909 62.7065 3.9352C62.7065 3.93658 62.7065 3.93795 62.7065 3.93932C62.7062 4.05069 62.7053 4.16522 62.7045 4.27407C62.7015 4.61275 62.6953 4.95219 62.6853 5.29763C62.6805 5.47827 62.6744 5.66115 62.6671 5.84671C62.6632 5.94949 62.6588 6.05355 62.6546 6.15348C62.6522 6.2084 62.6495 6.26413 62.6468 6.32023C62.5852 7.61021 62.4802 8.89071 62.3032 10.1878C62.1255 11.4759 61.8844 12.7762 61.4886 14.0684C61.0879 15.277 60.6705 16.5376 59.4754 17.6755C59.4128 17.7332 59.3497 17.7906 59.2862 17.8478C52.8302 23.477 44.6079 26.1894 36.589 28.1265C35.4353 28.3959 34.246 28.6484 33.0853 28.8747C31.9077 29.104 30.7539 29.3088 29.5715 29.4987C29.2107 29.5567 28.8419 29.6141 28.4647 29.6707Z" fill="white"/>
</svg>
