<svg preserveAspectRatio="xMidYMid meet" overflow="visible" style="display: block;" width="253.928" height="265.164" viewBox="0 0 253.928 265.164" fill="none" xmlns="http://www.w3.org/2000/svg">
<g id="Group 30">
<path id="Vector 54 (Stroke)" d="M92.513 194.951L93.9628 193.035L98.1069 196.173L96.6579 198.088L92.513 194.951Z" fill="#FF9595"/>
<path id="Vector 92 (Stroke)" d="M186.082 96.9389L184.195 98.4246L187.532 102.661L189.42 101.176L186.082 96.9389Z" fill="#FF9595"/>
<path id="Vector 58 (Stroke)" d="M63.404 209.107L64.2346 206.853L69.1118 208.651L68.2818 210.904L63.404 209.107Z" fill="#FF9595"/>
<path id="Vector 93 (Stroke)" d="M199.351 67.5858L197.126 68.4902L199.079 73.2936L201.304 72.3899L199.351 67.5858Z" fill="#FF9595"/>
<path id="Vector 82 (Stroke)" d="M43.4512 200.631L42.2059 198.577L46.6508 195.882L47.8962 197.935L43.4512 200.631Z" fill="#FF9595"/>
<path id="Vector 94 (Stroke)" d="M190.248 47.9773L188.154 46.8003L185.614 51.3203L187.707 52.4975L190.248 47.9773Z" fill="#FF9595"/>
<path id="Vector 85 (Stroke)" d="M30.9108 246.064L29.0176 244.585L32.2168 240.489L34.1099 241.966L30.9108 246.064Z" fill="#FF9595"/>
<path id="Vector 95 (Stroke)" d="M235.127 33.9825L233.588 32.139L229.608 35.4631L231.147 37.3065L235.127 33.9825Z" fill="#FF9595"/>
<path id="Vector 62 (Stroke)" d="M48.2486 250.642L48.3549 248.243L53.1314 248.454L53.0256 250.853L48.2486 250.642Z" fill="#FF9595"/>
<path id="Vector 96 (Stroke)" d="M240.265 51.1162L237.87 51.3014L238.238 56.0561L240.633 55.8714L240.265 51.1162Z" fill="#FF9595"/>
<path id="Vector 55 (Stroke)" d="M86.7046 188.123L88.5598 186.597L92.0593 190.851L90.205 192.378L86.7046 188.123Z" fill="#FF9595"/>
<path id="Vector 97 (Stroke)" d="M179.147 91.6568L177.891 93.7043L182.43 96.491L183.687 94.4444L179.147 91.6568Z" fill="#FF9595"/>
<path id="Vector 89 (Stroke)" d="M65.1631 171.489L65.3956 169.099L70.6683 169.611L70.4365 172.002L65.1631 171.489Z" fill="#FF9595"/>
<path id="Vector 98 (Stroke)" d="M161.91 70.5756L159.528 70.8864L160.213 76.1261L162.595 75.8157L161.91 70.5756Z" fill="#FF9595"/>
<path id="Vector 59 (Stroke)" d="M53.5954 203.113L54.9271 201.114L59.5119 204.168L58.1813 206.167L53.5954 203.113Z" fill="#FF9595"/>
<path id="Vector 99 (Stroke)" d="M193.059 58.0031L191.104 59.3998L194.299 63.8706L196.254 62.4749L193.059 58.0031Z" fill="#FF9595"/>
<path id="Vector 83 (Stroke)" d="M32.6538 204.569L31.9198 202.281L37.1648 200.598L37.8997 202.884L32.6538 204.569Z" fill="#FF9595"/>
<path id="Vector 100 (Stroke)" d="M193.82 37.0812L191.51 36.4228L190.003 41.7072L192.313 42.3665L193.82 37.0812Z" fill="#FF9595"/>
<path id="Vector 86 (Stroke)" d="M23.0405 251.069L21.7264 249.058L26.3376 246.044L27.6523 248.054L23.0405 251.069Z" fill="#FF9595"/>
<path id="Vector 101 (Stroke)" d="M239.859 25.9697L237.806 24.7225L234.953 29.4186L237.005 30.6664L239.859 25.9697Z" fill="#FF9595"/>
<path id="Vector 63 (Stroke)" d="M37.9573 248.13L38.6182 245.821L43.4891 247.215L42.8293 249.524L37.9573 248.13Z" fill="#FF9595"/>
<path id="Vector 102 (Stroke)" d="M237.419 40.9378L235.133 41.6745L236.683 46.4844L238.969 45.7489L237.419 40.9378Z" fill="#FF9595"/>
<path id="Vector 56 (Stroke)" d="M84.8911 185.324L83.7111 180.92L86.0312 180.298L87.2112 184.702L84.8911 185.324Z" fill="#FF9595"/>
<path id="Vector 103 (Stroke)" d="M176.522 90.1181L171.599 88.9715L171.055 91.3108L175.977 92.4574L176.522 90.1181Z" fill="#FF9595"/>
<path id="Vector 90 (Stroke)" d="M61.2173 169.849L57.42 167.656L58.6209 165.576L62.4183 167.768L61.2173 169.849Z" fill="#FF9595"/>
<path id="Vector 104 (Stroke)" d="M160.141 66.6939L157.831 62.9802L155.791 64.249L158.102 67.9628L160.141 66.6939Z" fill="#FF9595"/>
<path id="Vector 60 (Stroke)" d="M50.5919 198.49L48.183 194.619L50.2222 193.35L52.6312 197.221L50.5919 198.49Z" fill="#FF9595"/>
<path id="Vector 105 (Stroke)" d="M188.346 55.1591L184.408 52.8845L183.206 54.9644L187.145 57.2391L188.346 55.1591Z" fill="#FF9595"/>
<path id="Vector 84 (Stroke)" d="M27.1658 204.039L22.6372 203.512L22.9151 201.126L27.4437 201.654L27.1658 204.039Z" fill="#FF9595"/>
<path id="Vector 106 (Stroke)" d="M193.11 31.6274L192.435 27.1295L190.06 27.4859L190.735 31.9837L193.11 31.6274Z" fill="#FF9595"/>
<path id="Vector 87 (Stroke)" d="M19.4856 252.016L15.0647 253.13L14.4778 250.801L18.8987 249.687L19.4856 252.016Z" fill="#FF9595"/>
<path id="Vector 107 (Stroke)" d="M240.687 22.395L241.653 17.9504L239.306 17.4406L238.34 21.8851L240.687 22.395Z" fill="#FF9595"/>
<path id="Vector 64 (Stroke)" d="M34.7987 245.674L31.6059 242.956L33.1629 241.127L36.3558 243.846L34.7987 245.674Z" fill="#FF9595"/>
<path id="Vector 108 (Stroke)" d="M234.869 37.8688L232.054 34.7747L230.277 36.3911L233.092 39.4852L234.869 37.8688Z" fill="#FF9595"/>
<path id="Vector 57 (Stroke)" d="M83.582 175.942L85.6029 171.153L87.8152 172.087L85.7951 176.876L83.582 175.942Z" fill="#FF9595"/>
<path id="Vector 109 (Stroke)" d="M166.4 88.9855L162.355 91.5024L163.623 93.5417L167.669 91.0247L166.4 88.9855Z" fill="#FF9595"/>
<path id="Vector 91 (Stroke)" d="M54.9354 165.649L51.5185 161.817L53.3109 160.218L56.7286 164.05L54.9354 165.649Z" fill="#FF9595"/>
<path id="Vector 110 (Stroke)" d="M155.75 60.5694L151.818 57.289L150.279 59.1332L154.212 62.4142L155.75 60.5694Z" fill="#FF9595"/>
<path id="Vector 61 (Stroke)" d="M47.7714 194.279L48.3131 189.109L50.7014 189.36L50.1604 194.53L47.7714 194.279Z" fill="#FF9595"/>
<path id="Vector 111 (Stroke)" d="M184.056 52.4871L178.92 53.1971L179.249 55.5758L184.385 54.8665L184.056 52.4871Z" fill="#FF9595"/>
<path id="Vector 52 (Stroke)" d="M47.512 193.51C41.0182 198.371 35.319 199.761 30.7675 199.403C26.2447 199.048 22.9544 196.97 21.2741 195.056L20.691 194.392L21.1513 193.638C25.9225 185.823 32.0935 182.467 37.9133 181.527C43.6757 180.597 49.007 182.047 52.197 183.695L53.3534 184.292L47.6923 193.375L47.512 193.51ZM30.9557 197.009C34.7843 197.31 39.8556 196.187 45.8948 191.718L49.9092 185.278C47.0368 184.075 42.8046 183.17 38.2959 183.898C33.3675 184.694 28.0285 187.451 23.7032 194.097C25.1392 195.391 27.6103 196.746 30.9557 197.009Z" fill="#FF9595"/>
<path id="Vector 112 (Stroke)" d="M183.281 52.257C187.914 45.6232 189.113 39.8954 188.607 35.3688C188.104 30.8707 185.924 27.6577 183.96 26.045L183.278 25.4844L182.539 25.9693C174.905 30.983 171.76 37.246 171.014 43.0797C170.276 48.8556 171.897 54.1234 173.645 57.2501L174.28 58.3866L182.965 52.5676L183.152 52.4417L183.281 52.257ZM186.22 35.6357C186.646 39.442 185.693 44.5339 181.436 50.7011L175.153 54.9118C173.859 52.0882 172.82 47.9009 173.397 43.3844C174.028 38.4463 176.601 33.0344 183.082 28.5047C184.418 29.8937 185.849 32.3116 186.22 35.6357Z" fill="#FF9595"/>
<path id="Vector 49 (Stroke)" d="M103.455 192.843C100.558 192.317 96.3177 190.65 92.8577 187.33C89.3603 183.975 86.6926 178.956 87.0053 171.869L87.03 171.317L89.5234 169.364L89.8563 169.323C93.0181 168.943 97.6021 169.621 101.004 173.001C104.445 176.419 106.411 182.332 104.855 191.856L104.658 193.062L103.455 192.843ZM102.672 190.2C103.777 181.923 101.88 177.257 99.3111 174.704C96.6837 172.094 93.1041 171.44 90.4679 171.675L89.3877 172.521C89.2626 178.577 91.576 182.771 94.5208 185.596C97.128 188.098 100.254 189.542 102.672 190.2Z" fill="#FF9595"/>
<path id="Vector 113 (Stroke)" d="M184.458 108.049C183.838 105.178 182.036 101.005 178.613 97.6639C175.152 94.2869 170.06 91.7919 163.004 92.3365L162.454 92.3787L160.587 94.9307L160.557 95.2647C160.282 98.43 161.109 102.979 164.59 106.26C168.113 109.579 174.073 111.345 183.517 109.481L184.716 109.244L184.458 108.049ZM181.791 107.354C173.578 108.727 168.865 106.988 166.237 104.512C163.55 101.979 162.781 98.4336 162.928 95.7986L163.734 94.6961C169.766 94.373 174.022 96.5413 176.935 99.3836C179.513 101.899 181.055 104.966 181.791 107.354Z" fill="#FF9595"/>
<path id="Vector 50 (Stroke)" d="M90.8432 168.872C89.9257 170.136 89.0652 170.692 88.1459 171.055C87.3211 171.381 86.8734 171.445 86.2105 171.78L85.9117 171.943L85.574 172.137L85.1868 172.097C77.1854 171.258 70.0137 168.625 64.7568 165.599C62.1296 164.086 59.9501 162.458 58.3773 160.879C56.8489 159.344 55.7302 157.692 55.552 156.122L55.484 155.522L55.9246 155.109C58.4942 152.704 61.6947 151.913 65.0241 152.136C68.3259 152.357 71.8046 153.573 75.0949 155.237C81.6691 158.563 87.8057 163.839 90.7909 167.395L91.3943 168.113L90.8432 168.872ZM87.2639 168.821C87.5954 168.69 87.9187 168.525 88.2844 168.177C85.2959 164.885 79.8218 160.32 74.0109 157.381C70.8769 155.795 67.7237 154.723 64.8639 154.532C62.2737 154.358 59.9695 154.907 58.0844 156.416C58.35 157.127 58.9742 158.073 60.0801 159.184C61.4672 160.577 63.4631 162.082 65.9558 163.517C70.8604 166.341 77.5735 168.825 85.0753 169.667C85.9738 169.214 86.8396 168.988 87.2639 168.821Z" fill="#FF9595"/>
<path id="Vector 114 (Stroke)" d="M160.144 96.2659C161.374 95.3094 161.9 94.4329 162.232 93.504C162.53 92.6702 162.579 92.2223 162.892 91.5504L163.044 91.2477L163.227 90.9038L163.174 90.5182C162.075 82.5685 159.214 75.5047 156.024 70.363C154.43 67.7934 152.735 65.6743 151.109 64.1579C149.528 62.6842 147.844 61.6226 146.271 61.4967L145.67 61.4483L145.272 61.9022C142.957 64.5437 142.274 67.7613 142.605 71.0737C142.934 74.3586 144.262 77.7872 146.029 81.0129C149.561 87.458 155.022 93.403 158.665 96.2624L159.403 96.8418L160.144 96.2659ZM159.97 92.696C159.851 93.0298 159.698 93.3567 159.365 93.7314C155.985 90.8601 151.256 85.5535 148.135 79.8584C146.452 76.7864 145.28 73.6782 144.995 70.8341C144.738 68.259 145.208 65.9456 146.649 64.0178C147.366 64.2595 148.328 64.8503 149.47 65.9152C150.904 67.252 152.47 69.1917 153.983 71.6295C156.958 76.4255 159.655 83.0356 160.742 90.4856C160.319 91.3965 160.123 92.268 159.97 92.696Z" fill="#FF9595"/>
<path id="Vector 51 (Stroke)" d="M76.2501 204.017C73.6078 205.238 69.1853 205.896 64.2657 204.168C59.3184 202.43 53.9627 198.315 49.394 190.143L49.1649 189.734L49.275 189.277L50.6835 183.411L51.5552 183.345C55.2303 183.063 60.8665 183.687 65.9464 186.486C71.0798 189.313 75.6067 194.347 76.9327 202.74L77.0744 203.637L76.2501 204.017ZM74.3925 202.175C73.0185 195.149 69.1366 190.986 64.7874 188.59C60.5784 186.271 55.9017 185.598 52.6054 185.696L51.722 189.375C56.004 196.857 60.8394 200.419 65.0612 201.902C68.8494 203.232 72.2166 202.919 74.3925 202.175Z" fill="#FF9595"/>
<path id="Vector 115 (Stroke)" d="M194.702 80.5632C195.832 77.8881 196.344 73.4563 194.459 68.6076C192.564 63.7319 188.285 58.5278 179.988 54.2413L179.571 54.0258L173.314 55.7479L173.275 56.622C173.116 60.2956 173.923 65.8947 176.88 70.8676C179.868 75.893 185.037 80.2411 193.448 81.2875L194.349 81.3995L194.702 80.5632ZM192.801 78.7676C185.753 77.6285 181.476 73.896 178.945 69.6399C176.496 65.5212 175.672 60.8821 175.662 57.5932L179.297 56.5933C186.895 60.616 190.603 65.3193 192.22 69.4784C193.67 73.2092 193.47 76.5747 192.801 78.7676Z" fill="#FF9595"/>
<path id="Vector 46 (Stroke)" d="M111.549 136.378C110.5 139.245 108.894 141.817 106.479 143.393C104.021 144.998 100.9 145.458 97.0889 144.418C93.4328 143.421 90.8931 142.074 89.2785 140.448C87.628 138.786 86.9996 136.884 87.0974 134.976C87.1927 133.119 87.9693 131.341 88.9634 129.818C89.963 128.285 91.2328 126.932 92.4315 125.905L92.5288 125.822L92.6405 125.761C93.659 125.208 94.9256 124.681 96.2585 124.366C97.5821 124.053 99.0503 123.93 100.427 124.273C101.844 124.626 103.124 125.466 103.98 126.969C104.814 128.434 105.188 130.425 105.052 133.005L105.036 133.304L104.882 133.56C104.431 134.312 103.81 135.128 103.06 135.795C102.321 136.453 101.367 137.044 100.26 137.174C99.09 137.31 97.9349 136.909 96.9159 135.925C95.935 134.977 95.078 133.494 94.3384 131.41L96.6024 130.607C97.2812 132.52 97.9797 133.613 98.5845 134.197C99.1511 134.745 99.6118 134.831 99.981 134.788C100.414 134.737 100.924 134.481 101.464 134.001C101.919 133.595 102.334 133.085 102.667 132.574C102.743 130.429 102.394 129.039 101.893 128.158C101.39 127.275 100.684 126.812 99.8467 126.604C98.9695 126.385 97.9158 126.442 96.8114 126.703C95.7631 126.951 94.7406 127.369 93.8989 127.815C92.8707 128.71 91.8031 129.862 90.9753 131.131C90.1157 132.448 89.5622 133.814 89.4963 135.1C89.433 136.336 89.8126 137.577 90.983 138.756C92.1894 139.971 94.2843 141.163 97.7209 142.1C101.003 142.995 103.389 142.542 105.166 141.382C106.986 140.195 108.342 138.152 109.294 135.552C111.204 130.334 111.3 123.374 110.72 118.579L113.105 118.29C113.708 123.274 113.642 130.661 111.549 136.378Z" fill="#FF9595"/>
<path id="Vector 48 (Stroke)" d="M116.569 151.554C110.902 161.808 99.4837 171.495 77.6111 174.173C66.5915 175.523 60.2098 178.595 56.3001 182.495C52.3874 186.399 50.7874 191.288 49.6617 196.668C47.4372 207.3 47.1881 220.018 32.5393 227.343L31.4645 225.194C44.8379 218.507 44.9795 207.317 47.3104 196.177C48.4625 190.67 50.1814 185.207 54.6033 180.795C59.0285 176.38 65.998 173.176 77.3192 171.789C98.5133 169.194 109.213 159.899 114.467 150.392C119.767 140.801 119.615 130.832 118.803 126.874L121.156 126.392C122.064 130.817 122.189 141.385 116.569 151.554Z" fill="#FF9595"/>
<path id="Vector 116 (Stroke)" d="M143.697 121.682C153.734 115.695 163.018 103.993 164.97 82.0988C165.953 71.0688 168.805 64.6063 172.565 60.5812C176.327 56.5529 181.148 54.7975 186.474 53.4987C197 50.9319 209.672 50.2655 216.494 35.4192L214.312 34.4163C208.086 47.9667 196.936 48.4749 185.906 51.1647C180.454 52.4942 175.062 54.3879 170.809 58.9419C166.553 63.4991 163.587 70.553 162.577 81.885C160.686 103.098 151.771 114.069 142.467 119.618C133.08 125.217 123.138 125.395 119.166 124.715L118.761 127.082C123.203 127.842 133.743 127.619 143.697 121.682Z" fill="#FF9595"/>
<path id="Vector 47 (Stroke)" d="M129.909 117.617C132.879 116.531 135.559 114.897 137.219 112.478C138.914 110.009 139.435 106.881 138.367 103.089C137.349 99.4777 135.999 96.965 134.384 95.3619C132.736 93.7247 130.858 93.0865 128.975 93.1647C127.14 93.241 125.39 93.9915 123.893 94.9594C122.389 95.9325 121.064 97.1744 120.061 98.3485L119.977 98.4469L119.915 98.5613C118.88 100.492 117.831 103.568 118.52 106.235C118.881 107.633 119.718 108.899 121.203 109.754C122.651 110.588 124.617 110.976 127.161 110.867L127.463 110.854L127.723 110.7C128.462 110.261 129.265 109.654 129.919 108.917C130.565 108.189 131.143 107.247 131.261 106.149C131.386 104.991 130.977 103.85 130.002 102.842C129.061 101.869 127.595 101.011 125.534 100.263L124.714 102.52C126.604 103.207 127.691 103.907 128.275 104.511C128.824 105.08 128.911 105.536 128.873 105.892C128.828 106.309 128.586 106.8 128.123 107.322C127.734 107.759 127.243 108.158 126.749 108.478C124.645 108.531 123.275 108.176 122.402 107.673C121.523 107.167 121.059 106.462 120.845 105.635C120.395 103.89 121.063 101.556 121.972 99.8125C122.842 98.8121 123.962 97.7759 125.198 96.9762C126.482 96.1456 127.815 95.6166 129.075 95.5642C130.286 95.5139 131.515 95.8978 132.692 97.0664C133.903 98.2692 135.099 100.347 136.055 103.741C136.96 106.954 136.471 109.324 135.239 111.119C133.971 112.966 131.807 114.366 129.085 115.36C123.629 117.354 116.444 117.533 111.744 116.92L111.434 119.301C116.377 119.946 123.978 119.783 129.909 117.617Z" fill="#FF9595"/>
<path id="Vector 43 (Stroke)" d="M151.18 153.165C148.871 151.943 145.205 149.235 140.851 145.731C136.469 142.204 131.309 137.803 125.98 133.131C115.323 123.786 103.963 113.33 96.7561 106.553L98.4015 104.803C105.595 111.567 116.933 122.003 127.564 131.325C132.88 135.986 138.013 140.363 142.358 143.86C146.731 147.38 150.227 149.943 152.303 151.042L151.18 153.165Z" fill="#FF9595"/>
<path id="Vector 44 (Stroke)" d="M138.623 153.614C137.406 159.096 133.707 164.924 125.58 169.587L124.748 170.065L124.099 169.36C121.415 166.448 118.594 161.311 118.89 155.309C119.191 149.227 122.675 142.54 132.077 136.581L132.889 136.067L136.92 140.098L137.005 140.258C138.572 143.217 139.829 148.182 138.623 153.614ZM125.234 167C132.233 162.737 135.263 157.665 136.279 153.092C137.324 148.385 136.262 144.081 134.963 141.537L132.558 139.133C124.276 144.629 121.535 150.463 121.29 155.427C121.056 160.165 123.082 164.351 125.234 167Z" fill="#FF9595"/>
<path id="Vector 45 (Stroke)" d="M165.904 127.776C165.326 134.414 160.19 138.118 154.515 140.068C148.819 142.024 142.218 142.364 137.872 142.089L137.42 142.06L134.713 139.353L134.835 138.726C135.896 133.287 137.791 129.395 140.255 126.743C142.732 124.077 145.715 122.74 148.797 122.3C154.88 121.434 161.318 124.062 165.357 126.662L165.966 127.055L165.904 127.776ZM153.734 137.796C158.809 136.053 162.678 133.087 163.422 128.286C159.62 125.991 154.121 123.968 149.136 124.678C146.541 125.048 144.079 126.156 142.015 128.378C140.023 130.522 138.339 133.771 137.32 138.564L138.472 139.715C142.61 139.926 148.618 139.553 153.734 137.796Z" fill="#FF9595"/>
<g id="Group 27">
<path id="Vector 33 (Stroke)" d="M81.6063 55.8238C78.9431 54.6403 75.2934 54.2829 72.0205 54.3034C68.7431 54.324 66.0849 54.7183 65.4856 54.8895L64.7718 55.0935L64.2704 54.5467C60.5995 50.5421 57.5387 44.4684 57.9029 39.1254C58.089 36.3964 59.176 33.836 61.5375 31.9292C63.8696 30.0463 67.3189 28.902 72.0493 28.7021C76.7977 28.5015 80.2903 29.4443 82.7181 31.289C85.1626 33.1464 86.3593 35.7895 86.7651 38.6301C87.5636 44.2197 85.3565 50.8875 83.1687 55.2632L82.6551 56.2899L81.6063 55.8238ZM81.494 53.1983C83.4096 49.0458 85.0304 43.4678 84.3878 38.9695C84.0466 36.582 83.083 34.5821 81.2651 33.2008C79.4305 31.8069 76.5584 30.9154 72.151 31.1016C67.7254 31.2886 64.8414 32.3492 63.0463 33.7985C61.281 35.224 60.4473 37.1233 60.2996 39.2885C60.01 43.5365 62.3924 48.7061 65.5901 52.4143C66.9047 52.1786 69.309 51.9181 72.0056 51.9012C74.9976 51.8825 78.5396 52.1591 81.494 53.1983Z" fill="#FF9595"/>
<path id="Vector 41 (Stroke)" d="M86.777 62.8945C84.6846 57.4544 80.094 55.6338 78.6095 54.8091L77.9613 54.4486L77.9934 53.7066C78.1104 51.0152 78.505 47.8948 79.2515 44.916C79.9943 41.9516 81.1064 39.0442 82.7042 36.843C84.3133 34.6265 86.5071 33.0157 89.3651 32.9798C92.1627 32.9447 95.2784 34.4286 98.7508 37.6194C102.241 40.8268 104.072 43.9139 104.532 46.8667C104.997 49.8507 104.032 52.4934 102.358 54.7168C99.0738 59.0774 92.8969 62.0631 88.2775 63.6029L87.1891 63.9657L86.777 62.8945ZM88.5597 60.9593C92.8501 59.3937 97.823 56.7455 100.439 53.2719C101.822 51.4357 102.501 49.4334 102.159 47.2374C101.812 45.0102 100.383 42.3813 97.126 39.3881C93.8506 36.3783 91.3058 35.3577 89.3948 35.3817C87.5442 35.4051 85.9812 36.4178 84.648 38.2543C83.3036 40.1064 82.2873 42.6824 81.5815 45.4992C80.9482 48.0264 80.5826 50.6807 80.4352 53.0491C82.2387 53.9626 86.2764 56.1128 88.5597 60.9593Z" fill="#FF9595"/>
<path id="Vector 42 (Stroke)" d="M89.9351 76.4627C90.3803 73.6396 89.5392 70.0263 88.395 66.8251C87.264 63.6606 85.916 61.1103 85.5546 60.5076L85.1422 59.8207L85.6181 59.1764C88.4768 55.3087 94.059 50.7235 99.7694 49.382C102.662 48.7026 105.681 48.8377 108.372 50.4375C111.056 52.0337 113.226 54.9764 114.655 59.5307C116.083 64.0833 116.007 67.7514 114.751 70.637C113.493 73.5284 111.134 75.4427 108.387 76.6504C102.961 79.0361 95.7093 78.8146 90.8803 77.8264L89.7564 77.5964L89.9351 76.4627ZM92.4319 75.6706C96.9456 76.4205 102.996 76.3967 107.421 74.451C109.779 73.414 111.595 71.8701 112.549 69.6788C113.505 67.4814 113.678 64.4408 112.363 60.2496C111.048 56.0601 109.165 53.7039 107.144 52.502C105.128 51.3037 102.786 51.141 100.319 51.7207C95.5911 52.8312 90.7517 56.5985 88.0179 60.0004C88.6497 61.1899 89.7252 63.412 90.6563 66.0171C91.6973 68.9297 92.6226 72.4914 92.4319 75.6706Z" fill="#FF9595"/>
<path id="Vector 34 (Stroke)" d="M70.0134 53.9804C63.6898 54.8837 58.4472 59.8609 55.5182 62.7899L54.6314 63.6767L53.7832 62.7523C52.0797 60.8939 49.7089 59.0041 47.2621 56.9598C44.8696 54.9608 42.4091 52.8164 40.7587 50.5515C39.096 48.2697 38.1075 45.6537 39.0724 42.8312C40.0058 40.1009 42.663 37.5237 47.3456 34.9726C51.4369 32.7437 54.7335 31.6751 57.4693 31.7057C60.2973 31.7374 62.4018 32.9413 64.0307 34.9168C65.6077 36.8294 66.7442 39.4686 67.7748 42.4226C68.7884 45.3281 69.811 48.897 70.9826 52.4119L71.4376 53.7769L70.0134 53.9804ZM68.2751 51.8629C67.24 48.6662 66.4197 45.8308 65.5069 43.2143C64.4885 40.2952 63.4646 38.006 62.1775 36.4449C60.9421 34.9467 59.4779 34.1307 57.4422 34.1079C55.314 34.0841 52.4506 34.926 48.4945 37.0813C43.9708 39.5457 41.9813 41.7481 41.3453 43.6079C40.741 45.3756 41.2604 47.1612 42.6998 49.1367C44.1516 51.1289 46.3875 53.0988 48.8024 55.1165C50.8126 56.7961 52.9581 58.518 54.6889 60.2334C57.5483 57.4435 62.3622 53.2071 68.2751 51.8629Z" fill="#FF9595"/>
<path id="Vector 82 (Stroke)_2" d="M69.785 50.4807C74.7713 50.5154 79.4771 53.1579 83.7111 55.487C86.7322 57.1491 89.1311 60.9244 90.6378 65.1386C92.17 69.4246 92.9124 74.5225 92.3368 79.2288C91.7617 83.93 89.8371 88.4382 85.8331 91.1885C81.8147 93.9485 76.066 94.689 68.3909 92.6326C62.3905 91.0248 58.1202 88.7852 55.2077 86.1023C52.2714 83.3976 50.7797 80.3 50.2638 77.1342C49.2518 70.9235 52.0289 64.6599 54.174 60.6873L54.2201 60.6013L54.2772 60.5216C59.4723 53.2012 64.5788 50.4444 69.785 50.4807ZM69.7631 53.6833C65.9792 53.6569 61.7567 55.547 56.9442 62.2972C54.8474 66.1984 52.6044 71.5829 53.425 76.6189C53.8285 79.0955 54.9811 81.5392 57.3774 83.7465C59.7974 85.9757 63.5482 88.0191 69.2197 89.5387C76.3622 91.4525 81.0427 90.5937 84.0199 88.5488C87.0117 86.4939 88.6499 82.9909 89.1577 78.8402C89.6648 74.6949 89.0105 70.0996 87.6221 66.216C86.2079 62.2607 84.1615 59.3893 82.1677 58.2924C77.7389 55.8561 73.7815 53.7114 69.7631 53.6833Z" fill="#FF9595"/>
<path id="Vector 35 (Stroke)" d="M59.4372 58.4449C53.957 64.3336 52.6786 70.4119 52.6786 74.2521L52.6786 75.9386L51.0843 75.3866C49.3368 74.7816 41.6488 72.9611 35.8095 69.32C32.8732 67.489 30.2086 65.0896 28.997 61.9688C27.7545 58.7685 28.131 55.0555 30.7852 50.8598C33.3126 46.8645 35.9477 44.5827 38.7212 43.7338C41.5272 42.875 44.2169 43.5597 46.6605 44.9277C49.085 46.2851 51.3771 48.3737 53.4847 50.5229C54.5441 51.6031 55.5762 52.7189 56.563 53.7833C57.5549 54.8533 58.4995 55.8692 59.4074 56.7771L60.2269 57.5965L59.4372 58.4449ZM56.914 57.6638C56.2207 56.9446 55.5139 56.1845 54.8014 55.4159C53.8088 54.3451 52.8012 53.2562 51.77 52.2047C49.6966 50.0903 47.6002 48.2063 45.4869 47.0232C43.3926 45.8508 41.3953 45.4269 39.4242 46.0302C37.4204 46.6435 35.1875 48.3952 32.8157 52.1445C30.473 55.8479 30.3287 58.7616 31.2363 61.0993C32.1747 63.5165 34.3308 65.5669 37.0809 67.2817C41.6488 70.1301 47.3166 71.7552 50.3415 72.6461C50.659 68.5574 52.2512 63.047 56.914 57.6638Z" fill="#FF9595"/>
<path id="Vector 36 (Stroke)" d="M53.1258 66.644C52.7164 70.0424 52.4201 72.9846 52.4698 75.5049C52.5195 78.0261 52.9155 80.0032 53.7965 81.5292L54.6401 82.9904L52.9834 83.3095C52.6082 83.3818 51.8971 83.6285 50.8212 84.0414C49.8037 84.4319 48.4897 84.9579 47.0773 85.4897C44.2316 86.5611 40.7518 87.7496 37.391 88.3158C34.0764 88.8743 30.6144 88.8751 27.9956 87.2751C25.2549 85.6007 23.7986 82.4191 23.9978 77.4969C24.1898 72.7541 25.3675 69.3179 27.3399 66.9443C29.3244 64.5563 31.9929 63.3877 34.8649 62.9501C37.7152 62.5158 40.82 62.7911 43.7992 63.3236C46.7829 63.8568 49.7267 64.6657 52.244 65.3402L53.2501 65.6098L53.1258 66.644ZM50.6194 67.3913C48.3412 66.7811 45.8687 66.1335 43.3768 65.6882C40.5095 65.1758 37.7016 64.9481 35.2267 65.3251C32.7733 65.6989 30.7026 66.6561 29.1871 68.4798C27.6596 70.3181 26.5765 73.1808 26.3979 77.5945C26.2193 82.0115 27.5178 84.1692 29.2475 85.226C31.099 86.3571 33.8227 86.4811 36.9913 85.9473C40.1138 85.4212 43.4157 84.3018 46.2309 83.2419C47.6488 82.708 48.8852 82.2118 49.9608 81.799C50.348 81.6504 50.7226 81.5112 51.0717 81.3869C50.3849 79.6554 50.11 77.6868 50.0679 75.5527C50.02 73.1221 50.2721 70.3795 50.6194 67.3913Z" fill="#FF9595"/>
<path id="Vector 37 (Stroke)" d="M52.4614 78.8676C54.5465 81.9225 55.8566 83.5781 57.05 84.7201C58.2244 85.8438 59.3209 86.5061 61.0974 87.5318L62.558 88.375L61.2828 89.4797C60.9913 89.7324 60.4956 90.3023 59.7662 91.1934C59.0731 92.04 58.1966 93.1404 57.2294 94.3034C55.2857 96.6405 52.8467 99.3904 50.1991 101.542C47.5871 103.664 44.57 105.372 41.4909 105.28C38.272 105.183 35.4116 103.151 33.1219 98.7866C30.9407 94.6291 30.187 91.31 30.6893 88.6228C31.205 85.8643 32.99 84.0333 35.2504 82.7696C37.4756 81.5255 40.2681 80.7669 43.039 80.1537C45.8877 79.5234 48.6531 79.0558 51.1586 78.3845L51.981 78.1641L52.4614 78.8676ZM50.9556 80.9144C48.5933 81.4982 45.9483 81.9698 43.5586 82.4986C40.8089 83.1071 38.3166 83.8074 36.4224 84.8664C34.5637 85.9056 33.3945 87.222 33.05 89.064C32.6923 90.9777 33.1723 93.7131 35.2486 97.6707C37.3011 101.583 39.516 102.817 41.5625 102.879C43.749 102.945 46.1897 101.705 48.6843 99.6776C51.1433 97.6795 53.4606 95.0781 55.3823 92.7676C56.3477 91.6068 57.181 90.5589 57.9074 89.6715C58.1443 89.3822 58.3759 89.1049 58.5955 88.8473C57.4266 88.1399 56.43 87.451 55.3898 86.4557C54.1119 85.2328 52.7998 83.5784 50.9556 80.9144Z" fill="#FF9595"/>
<path id="Vector 38 (Stroke)" d="M57.3117 84.7726C63.9146 90.9352 71.828 92.8588 75.6468 92.8588L77.3333 92.8588L76.7813 94.4522C76.6644 94.79 76.5571 95.4304 76.442 96.4187C76.3868 96.893 76.3325 97.4172 76.2731 97.9895C76.214 98.559 76.1505 99.1724 76.0769 99.8128C75.7838 102.361 75.3279 105.421 74.3309 108.17C73.3373 110.909 71.7437 113.512 69.061 114.908C66.3473 116.32 62.8092 116.351 58.2664 114.57C52.9354 112.48 49.4841 110.072 47.5281 107.403C45.5335 104.68 45.1725 101.792 45.8072 98.9926C46.4294 96.2481 47.9997 93.611 49.8174 91.2395C51.6429 88.8579 53.7872 86.6575 55.6432 84.8015L56.4634 83.9813L57.3117 84.7726ZM56.54 87.3059C54.9143 88.9529 53.1996 90.7745 51.7236 92.7C49.9947 94.9557 48.6608 97.269 48.1497 99.5235C47.651 101.723 47.9271 103.883 49.4656 105.983C51.0427 108.136 54.0213 110.326 59.1429 112.334C63.3021 113.964 66.0665 113.759 67.9523 112.777C69.8692 111.779 71.1733 109.831 72.0729 107.351C72.969 104.88 73.4013 102.054 73.6906 99.5384C73.7625 98.9129 73.8253 98.3118 73.8845 97.7416C73.9433 97.1742 73.9991 96.633 74.0565 96.1403C74.0944 95.815 74.1365 95.4951 74.1816 95.1896C69.747 94.7963 62.6994 92.6618 56.54 87.3059Z" fill="#FF9595"/>
<path id="Vector 39 (Stroke)" d="M70.1225 92.2013C78.0757 91.8832 83.1772 89.9885 85.7588 87.4068L86.3642 86.8014L87.1338 87.1762C89.0578 88.114 91.3304 90.1278 93.3476 92.5673C95.3807 95.0262 97.2562 98.0404 98.3162 101.087C99.3685 104.111 99.6779 107.356 98.2714 110.102C96.8406 112.895 93.8174 114.827 88.9837 115.591C81.7705 116.731 76.8038 116.675 73.448 115.657C71.7483 115.141 70.4254 114.367 69.4441 113.346C68.4601 112.321 67.8787 111.109 67.5693 109.811C66.9668 107.284 67.3802 104.326 67.8684 101.537C68.375 98.6426 68.9697 95.8871 68.9697 93.4016L68.9697 92.2472L70.1225 92.2013ZM71.3355 94.5444C71.1938 96.9861 70.6476 99.5889 70.2342 101.951C69.7372 104.79 69.4341 107.277 69.9058 109.255C70.1336 110.211 70.5374 111.017 71.1763 111.682C71.8179 112.35 72.756 112.937 74.1452 113.359C76.9683 114.215 81.4946 114.343 88.6094 113.218C93.0077 112.523 95.1787 110.871 96.1335 109.007C97.1126 107.095 96.9994 104.609 96.0483 101.876C95.105 99.1652 93.3972 96.3975 91.496 94.0982C89.8658 92.1266 88.1651 90.589 86.7805 89.7277C83.6133 92.4357 78.3929 94.1222 71.3355 94.5444Z" fill="#FF9595"/>
<path id="Vector 40 (Stroke)" d="M83.4828 89.7899C86.9115 86.5754 88.2396 83.2069 88.9121 80.2599C89.2548 78.7581 89.4226 77.3949 89.6187 76.1269C89.7921 75.0058 89.9989 73.8534 90.4551 72.9377L90.5502 72.7576L90.7515 72.3944L91.1342 72.2336C95.7211 70.3043 102.345 71.2778 107.339 73.9665C112.328 76.6524 116.317 81.4468 114.444 87.4564C113.063 91.8857 111.506 95.6422 109.801 98.6333C108.103 101.614 106.219 103.902 104.153 105.312C102.053 106.745 99.7596 107.268 97.387 106.668C95.0629 106.081 92.8227 104.456 90.683 101.928L90.6665 101.909L90.6516 101.89C86.1691 96.1263 84.7378 94.2251 84.2234 93.3756C84.0806 93.1398 83.9805 92.9411 83.9066 92.7401C83.8471 92.5782 83.7955 92.3692 83.789 92.3466C83.7617 92.2503 83.6926 92.0152 83.2619 91.2615L82.7912 90.4382L83.4828 89.7899ZM85.7876 90.8964C85.9518 91.237 86.0389 91.4757 86.0998 91.6902C86.1576 91.8935 86.1423 91.8593 86.1616 91.9117C86.1665 91.9251 86.1872 91.9815 86.2779 92.1314C86.6978 92.8247 87.9981 94.5668 92.5217 100.383C94.4789 102.694 96.317 103.92 97.9756 104.34C99.5871 104.747 101.183 104.431 102.8 103.328C104.451 102.201 106.114 100.253 107.715 97.4439C109.309 94.6461 110.804 91.0604 112.15 86.7409C113.509 82.3841 110.795 78.555 106.201 76.0816C101.781 73.7024 96.2016 72.9459 92.4854 74.2854C92.292 74.791 92.1459 75.5014 91.9924 76.4937C91.8094 77.6774 91.6215 79.1823 91.2538 80.794C90.5496 83.8801 89.1682 87.4647 85.7876 90.8964Z" fill="#FF9595"/>
</g>
<path id="Ellipse 98 (Stroke)" d="M74.4518 62.3917C74.7601 62.7001 75.2602 62.7001 75.5686 62.3917C75.8769 62.0834 75.8769 61.5833 75.5686 61.275C75.2602 60.9666 74.7601 60.9666 74.4518 61.275L72.7534 59.5766L72.8722 59.4632C74.0847 58.3677 75.9356 58.3678 77.1481 59.4632L77.2669 59.5766C78.5133 60.8229 78.5133 62.8438 77.2669 64.0901L77.1481 64.2035C75.8952 65.3354 73.9608 65.2975 72.7534 64.0901L72.64 63.9713C71.5081 62.7184 71.546 60.784 72.7534 59.5766L74.4518 61.275C74.1435 61.5833 74.1435 62.0834 74.4518 62.3917Z" fill="#FF9595"/>
<path id="Vector 66" d="M120.114 74.7769C118.722 75.1688 117.32 77.3865 120.112 80.6231C121.229 81.8658 122.749 80.1053 123.369 79.0697C125.076 77.6457 122.906 73.9907 120.114 74.7769Z" fill="#FF9595"/>
<path id="Vector 66 (Stroke)" d="M120.005 74.3917C121.61 73.9399 123.013 74.7746 123.76 75.8694C124.475 76.9182 124.705 78.4179 123.678 79.3308C123.348 79.8672 122.796 80.5855 122.155 81.0298C121.823 81.2606 121.432 81.4417 121.014 81.4505C120.576 81.4597 120.163 81.2782 119.814 80.8907L119.809 80.8852V80.8844C118.366 79.2113 117.947 77.7309 118.15 76.5653C118.352 75.4052 119.161 74.6293 120.005 74.3917ZM123.098 76.3206C122.489 75.4285 121.411 74.8282 120.223 75.1626C119.674 75.3169 119.088 75.8464 118.939 76.7021C118.791 77.5513 119.066 78.7957 120.41 80.3559L120.488 80.4356C120.669 80.6045 120.839 80.6538 120.997 80.6506C121.197 80.6464 121.434 80.5556 121.699 80.3723C122.23 80.0038 122.73 79.3582 123.026 78.864L123.061 78.8062L123.113 78.7624C123.731 78.2463 123.727 77.2411 123.098 76.3206Z" fill="#FF9595"/>
<path id="Vector 67" d="M28.6053 38.0213C28.6235 39.4672 30.4029 41.395 34.2518 39.5359C35.7413 38.7787 34.4342 36.8549 33.5944 35.9877C32.6605 33.971 28.5686 35.1203 28.6053 38.0213Z" fill="#FF9595"/>
<path id="Vector 67 (Stroke)" d="M28.2057 38.0268C28.1846 36.3599 29.3539 35.221 30.6048 34.7826C31.8031 34.3627 33.3112 34.5289 33.927 35.7578C34.3599 36.2146 34.9107 36.9342 35.1741 37.6679C35.311 38.0491 35.3848 38.4732 35.285 38.8795C35.1804 39.3052 34.8983 39.657 34.4338 39.8931L34.4271 39.897L34.4264 39.8968C32.4368 40.8576 30.8984 40.8789 29.825 40.3815C28.7567 39.8863 28.2169 38.9033 28.2057 38.0268ZM30.8694 35.5383C29.8501 35.8956 28.991 36.7823 29.0066 38.0163C29.0138 38.5857 29.3734 39.2896 30.1614 39.6549C30.9433 40.0174 32.2166 40.0733 34.0715 39.1792L34.1687 39.1243C34.3786 38.9935 34.4703 38.8421 34.5079 38.6891C34.5557 38.4946 34.5294 38.2415 34.4208 37.9388C34.2024 37.3304 33.7083 36.6799 33.3076 36.2661L33.2606 36.2179L33.2319 36.1559C32.8933 35.4253 31.9211 35.1697 30.8694 35.5383Z" fill="#FF9595"/>
<path id="Vector 71" d="M20.7174 59.27C19.3254 59.6619 17.9239 61.8796 20.7159 65.1162C21.8327 66.3589 23.3526 64.5984 23.973 63.5628C25.6792 62.1388 23.51 58.4838 20.7174 59.27Z" fill="#FF9595"/>
<path id="Vector 71 (Stroke)" d="M20.6087 58.8843C22.2134 58.4326 23.616 59.2673 24.3633 60.3621C25.079 61.4109 25.3088 62.9105 24.2812 63.8235C23.9519 64.3598 23.3994 65.0782 22.7589 65.5225C22.4262 65.7533 22.0356 65.9344 21.6174 65.9431C21.1791 65.9523 20.7663 65.7709 20.4179 65.3833L20.4125 65.3779V65.3771C18.9694 63.7039 18.5507 62.2235 18.7533 61.058C18.9552 59.8978 19.765 59.122 20.6087 58.8843ZM23.7018 60.8132C23.0929 59.9211 22.014 59.3208 20.8261 59.6553C20.278 59.8096 19.6911 60.3391 19.5422 61.1948C19.3945 62.0439 19.67 63.2883 21.0137 64.8485L21.0919 64.9283C21.2726 65.0971 21.4425 65.1465 21.6001 65.1433C21.8003 65.1391 22.038 65.0482 22.3023 64.8649C22.8335 64.4965 23.3339 63.8508 23.6299 63.3567L23.6643 63.2988L23.7167 63.255C24.3348 62.739 24.3301 61.7337 23.7018 60.8132Z" fill="#FF9595"/>
<path id="Vector 72" d="M24.6816 90.4689C23.4202 89.7617 20.861 90.3388 20.5466 94.6017C20.4576 96.2701 22.7772 96.1 23.9482 95.8064C26.1616 96.0059 27.2122 91.8876 24.6816 90.4689Z" fill="#FF9595"/>
<path id="Vector 72 (Stroke)" d="M24.8768 90.1193C26.3309 90.9345 26.7325 92.5166 26.4867 93.8191C26.2512 95.0669 25.3533 96.2897 23.9811 96.2087C23.369 96.3551 22.4704 96.4723 21.7033 96.3336C21.3048 96.2615 20.9006 96.1134 20.5986 95.8239C20.2823 95.5205 20.1186 95.1002 20.1464 94.5799L20.1464 94.5722L20.1469 94.5716C20.3096 92.3681 21.0603 91.0252 22.0278 90.3443C22.9909 89.6667 24.1121 89.6908 24.8768 90.1193ZM25.7 93.6704C25.9002 92.609 25.5618 91.4217 24.4853 90.8182C23.9886 90.5397 23.1993 90.4992 22.4889 90.9989C21.784 91.4949 21.0989 92.5696 20.9458 94.623L20.9447 94.7347C20.9531 94.9819 21.0383 95.1369 21.1521 95.2461C21.2966 95.3847 21.5289 95.4885 21.8454 95.5458C22.4815 95.6608 23.2919 95.5582 23.8506 95.4181L23.9159 95.4015L23.9839 95.4076C24.7859 95.4797 25.4933 94.7655 25.7 93.6704Z" fill="#FF9595"/>
<path id="Vector 73" d="M42.349 108.924C40.903 108.942 38.9753 110.722 40.8344 114.571C41.5915 116.06 43.5153 114.753 44.3826 113.913C46.3992 112.979 45.2499 108.888 42.349 108.924Z" fill="#FF9595"/>
<path id="Vector 73 (Stroke)" d="M42.3454 108.523C44.0123 108.502 45.1512 109.671 45.5896 110.922C46.0095 112.121 45.8433 113.629 44.6145 114.244C44.1576 114.677 43.438 115.228 42.7043 115.492C42.3231 115.628 41.899 115.702 41.4927 115.602C41.0671 115.498 40.7152 115.216 40.4791 114.751L40.4752 114.745L40.4754 114.744C39.5146 112.754 39.4933 111.216 39.9907 110.142C40.4859 109.074 41.4689 108.534 42.3454 108.523ZM44.8339 111.187C44.4767 110.168 43.5899 109.308 42.3559 109.324C41.7865 109.331 41.0826 109.691 40.7173 110.479C40.3548 111.261 40.2989 112.534 41.193 114.389L41.2479 114.486C41.3787 114.696 41.5301 114.788 41.6832 114.825C41.8776 114.873 42.1307 114.847 42.4334 114.738C43.0418 114.52 43.6923 114.026 44.1062 113.625L44.1544 113.578L44.2163 113.549C44.9469 113.211 45.2025 112.239 44.8339 111.187Z" fill="#FF9595"/>
<path id="Vector 74" d="M69.0209 118.625C67.7778 119.363 66.998 121.868 70.5325 124.272C71.9329 125.183 72.9454 123.089 73.2766 121.929C74.5561 120.111 71.5149 117.142 69.0209 118.625Z" fill="#FF9595"/>
<path id="Vector 74 (Stroke)" d="M68.8184 118.281C70.2515 117.429 71.8224 117.872 72.8276 118.736C73.7903 119.564 74.4004 120.953 73.6441 122.101C73.4649 122.704 73.1171 123.541 72.6134 124.136C72.3518 124.445 72.0214 124.721 71.6197 124.838C71.1987 124.96 70.753 124.892 70.3162 124.607L70.3095 124.604L70.3093 124.603C68.4824 123.36 67.6948 122.039 67.5888 120.86C67.4836 119.687 68.065 118.728 68.8184 118.281ZM72.3054 119.343C71.4863 118.639 70.2889 118.338 69.2279 118.969C68.7384 119.26 68.3086 119.923 68.3863 120.788C68.4634 121.647 69.0515 122.777 70.7533 123.937L70.8495 123.993C71.0677 124.11 71.2446 124.114 71.396 124.07C71.5883 124.014 71.7943 123.864 72.0022 123.619C72.4199 123.126 72.7362 122.372 72.8942 121.819L72.9125 121.754L72.9517 121.698C73.4152 121.039 73.1505 120.07 72.3054 119.343Z" fill="#FF9595"/>
<path id="Vector 68" d="M59.0182 20.9722C57.6262 21.3641 56.2247 23.5818 59.0166 26.8184C60.1335 28.0611 61.6534 26.3006 62.2738 25.265C63.98 23.8409 61.8108 20.186 59.0182 20.9722Z" fill="#FF9595"/>
<path id="Vector 68 (Stroke)" d="M58.9095 20.5865C60.5142 20.1347 61.9168 20.9694 62.6641 22.0642C63.3798 23.113 63.6096 24.6127 62.582 25.5256C62.2527 26.062 61.7002 26.7803 61.0597 27.2246C60.727 27.4555 60.3364 27.6365 59.9181 27.6453C59.4799 27.6545 59.067 27.473 58.7187 27.0855L58.7133 27.08V27.0792C57.2702 25.4061 56.8515 23.9257 57.0541 22.7601C57.256 21.6 58.0658 20.8241 58.9095 20.5865ZM62.0026 22.5154C61.3937 21.6233 60.3148 21.023 59.1269 21.3574C58.5788 21.5117 57.9919 22.0412 57.843 22.8969C57.6953 23.7461 57.9708 24.9905 59.3145 26.5507L59.3927 26.6304C59.5734 26.7993 59.7433 26.8487 59.9009 26.8454C60.1011 26.8412 60.3388 26.7504 60.6031 26.5671C61.1342 26.1986 61.6347 25.553 61.9307 25.0588L61.9651 25.001L62.0175 24.9572C62.6356 24.4411 62.6309 23.4359 62.0026 22.5154Z" fill="#FF9595"/>
<path id="Vector 75" d="M61.7526 62.0059C60.3606 62.3977 58.9591 64.6155 61.751 67.8521C62.8679 69.0948 64.3878 67.3343 65.0082 66.2987C66.7144 64.8746 64.5452 61.2197 61.7526 62.0059Z" fill="#FF9595"/>
<path id="Vector 75 (Stroke)" d="M61.6439 61.6202C63.2485 61.1684 64.6512 62.0031 65.3985 63.0979C66.1142 64.1467 66.344 65.6464 65.3164 66.5593C64.9871 67.0957 64.4346 67.814 63.794 68.2583C63.4613 68.4891 63.0707 68.6702 62.6525 68.679C62.2143 68.6882 61.8014 68.5067 61.4531 68.1192L61.4476 68.1137V68.1129C60.0045 66.4398 59.5858 64.9594 59.7885 63.7938C59.9903 62.6337 60.8001 61.8578 61.6439 61.6202ZM64.737 63.5491C64.1281 62.657 63.0492 62.0567 61.8612 62.3911C61.3131 62.5454 60.7263 63.0749 60.5774 63.9306C60.4297 64.7798 60.7051 66.0242 62.0489 67.5844L62.1271 67.6641C62.3078 67.833 62.4777 67.8823 62.6353 67.8791C62.8355 67.8749 63.0731 67.7841 63.3374 67.6008C63.8686 67.2323 64.369 66.5867 64.6651 66.0925L64.6995 66.0347L64.7519 65.9909C65.37 65.4748 65.3652 64.4696 64.737 63.5491Z" fill="#FF9595"/>
<path id="Vector 79" d="M57.9295 76.594C57.9477 78.04 59.7272 79.9677 63.5761 78.1086C65.0655 77.3515 63.7584 75.4277 62.9186 74.5604C61.9847 72.5438 57.8929 73.6931 57.9295 76.594Z" fill="#FF9595"/>
<path id="Vector 79 (Stroke)" d="M57.5279 76.5995C57.5069 74.9326 58.6762 73.7938 59.9271 73.3553C61.1254 72.9355 62.6334 73.1017 63.2493 74.3305C63.6821 74.7874 64.233 75.507 64.4964 76.2407C64.6332 76.6218 64.707 77.046 64.6073 77.4522C64.5027 77.8779 64.2206 78.2297 63.7561 78.4659L63.7494 78.4697L63.7486 78.4695C61.759 79.4304 60.2207 79.4517 59.1473 78.9543C58.0789 78.4591 57.5391 77.476 57.5279 76.5995ZM60.1917 74.111C59.1723 74.4683 58.3133 75.3551 58.3289 76.5891C58.336 77.1585 58.6956 77.8624 59.4836 78.2277C60.2656 78.5901 61.5389 78.6461 63.3937 77.752L63.491 77.6971C63.7008 77.5662 63.7925 77.4149 63.8302 77.2618C63.878 77.0674 63.8517 76.8143 63.7431 76.5116C63.5246 75.9031 63.0305 75.2527 62.6298 74.8388L62.5829 74.7906L62.5541 74.7287C62.2156 73.9981 61.2434 73.7425 60.1917 74.111Z" fill="#FF9595"/>
<path id="Vector 80" d="M66.1365 83.889C66.1548 85.3349 67.9342 87.2627 71.7831 85.4036C73.2725 84.6464 71.9654 82.7226 71.1257 81.8553C70.1917 79.8387 66.0999 80.988 66.1365 83.889Z" fill="#FF9595"/>
<path id="Vector 80 (Stroke)" d="M65.735 83.8945C65.7139 82.2276 66.8832 81.0887 68.1341 80.6503C69.3324 80.2304 70.8404 80.3966 71.4563 81.6254C71.8891 82.0823 72.44 82.8019 72.7034 83.5356C72.8403 83.9167 72.9141 84.3409 72.8143 84.7472C72.7097 85.1728 72.4276 85.5247 71.9631 85.7608L71.9564 85.7647L71.9557 85.7645C69.9661 86.7253 68.4277 86.7466 67.3543 86.2492C66.286 85.754 65.7461 84.771 65.735 83.8945ZM68.3987 81.406C67.3794 81.7632 66.5203 82.65 66.5359 83.884C66.5431 84.4534 66.9026 85.1573 67.6907 85.5226C68.4726 85.8851 69.7459 85.941 71.6007 85.0469L71.698 84.992C71.9079 84.8612 71.9995 84.7098 72.0372 84.5567C72.085 84.3623 72.0587 84.1092 71.9501 83.8065C71.7317 83.1981 71.2376 82.5476 70.8369 82.1337L70.7899 82.0855L70.7611 82.0236C70.4226 81.293 69.4504 81.0374 68.3987 81.406Z" fill="#FF9595"/>
<path id="Vector 81" d="M81.4687 84.8591C82.8607 84.4672 84.2622 82.2495 81.4703 79.0129C80.3534 77.7702 78.8335 79.5307 78.2131 80.5662C76.5069 81.9903 78.6761 85.6453 81.4687 84.8591Z" fill="#FF9595"/>
<path id="Vector 81 (Stroke)" d="M81.5813 85.2448C79.9767 85.6965 78.574 84.8618 77.8267 83.767C77.111 82.7182 76.8812 81.2186 77.9088 80.3056C78.2381 79.7693 78.7906 79.0509 79.4311 78.6066C79.7639 78.3758 80.1545 78.1947 80.5727 78.1859C81.0109 78.1768 81.4238 78.3582 81.7721 78.7458L81.7776 78.7512L81.7776 78.752C83.2207 80.4251 83.6394 81.9056 83.4367 83.0711C83.2349 84.2312 82.4251 85.0071 81.5813 85.2448ZM78.4882 83.3159C79.0971 84.208 80.176 84.8083 81.364 84.4738C81.9121 84.3195 82.4989 83.79 82.6478 82.9343C82.7955 82.0852 82.5201 80.8408 81.1763 79.2806L81.0981 79.2008C80.9174 79.032 80.7475 78.9826 80.5899 78.9858C80.3897 78.99 80.152 79.0809 79.8878 79.2642C79.3566 79.6326 78.8562 80.2783 78.5601 80.7724L78.5257 80.8303L78.4733 80.874C77.8552 81.3901 77.86 82.3954 78.4882 83.3159Z" fill="#FF9595"/>
<path id="Vector 76" d="M73.608 59.27C72.2161 59.6619 70.8145 61.8796 73.6065 65.1162C74.7233 66.3589 76.2433 64.5984 76.8636 63.5629C78.5698 62.1388 76.4006 58.4838 73.608 59.27Z" fill="#FF9595"/>
<path id="Vector 76 (Stroke)" d="M73.4974 58.8843C75.102 58.4326 76.5047 59.2673 77.252 60.3621C77.9677 61.4109 78.1975 62.9105 77.1699 63.8235C76.8406 64.3598 76.2881 65.0782 75.6476 65.5225C75.3148 65.7533 74.9242 65.9344 74.506 65.9432C74.0678 65.9523 73.6549 65.7709 73.3066 65.3833L73.3011 65.3779V65.3771C71.8581 63.704 71.4393 62.2235 71.642 61.058C71.8438 59.8979 72.6537 59.122 73.4974 58.8843ZM76.5905 60.8132C75.9816 59.9211 74.9027 59.3208 73.7147 59.6553C73.1666 59.8096 72.5798 60.3391 72.4309 61.1948C72.2832 62.0439 72.5587 63.2883 73.9024 64.8485L73.9806 64.9283C74.1613 65.0971 74.3312 65.1465 74.4888 65.1433C74.689 65.1391 74.9267 65.0482 75.1909 64.8649C75.7221 64.4965 76.2226 63.8508 76.5186 63.3567L76.553 63.2988L76.6054 63.255C77.2235 62.739 77.2187 61.7337 76.5905 60.8132Z" fill="#FF9595"/>
<path id="Vector 77" d="M70.8736 71.124C69.4817 71.5159 68.0802 73.7336 70.8721 76.9702C71.9889 78.2129 73.5089 76.4524 74.1293 75.4169C75.8355 73.9928 73.6663 70.3379 70.8736 71.124Z" fill="#FF9595"/>
<path id="Vector 77 (Stroke)" d="M70.765 70.7384C72.3696 70.2866 73.7723 71.1213 74.5196 72.2161C75.2353 73.2649 75.465 74.7646 74.4375 75.6775C74.1082 76.2138 73.5557 76.9322 72.9151 77.3765C72.5824 77.6073 72.1918 77.7884 71.7736 77.7972C71.3353 77.8063 70.9225 77.6249 70.5742 77.2373L70.5687 77.2319V77.2311C69.1256 75.558 68.7069 74.0775 68.9096 72.912C69.1114 71.7519 69.9212 70.976 70.765 70.7384ZM73.8581 72.6672C73.2492 71.7751 72.1703 71.1748 70.9823 71.5093C70.4342 71.6636 69.8474 72.1931 69.6985 73.0488C69.5507 73.8979 69.8262 75.1423 71.17 76.7025L71.2482 76.7823C71.4289 76.9511 71.5988 77.0005 71.7564 76.9973C71.9565 76.9931 72.1942 76.9022 72.4585 76.719C72.9897 76.3505 73.4901 75.7049 73.7861 75.2107L73.8206 75.1528L73.8729 75.1091C74.4911 74.593 74.4863 73.5877 73.8581 72.6672Z" fill="#FF9595"/>
<path id="Vector 78" d="M85.543 72.0303C86.2502 70.7689 85.673 68.2097 81.4102 67.8953C79.7418 67.8063 79.9119 70.1259 80.2055 71.2968C80.0059 73.5103 84.1242 74.5608 85.543 72.0303Z" fill="#FF9595"/>
<path id="Vector 78 (Stroke)" d="M85.894 72.2259C85.0788 73.68 83.4967 74.0817 82.1942 73.8359C80.9465 73.6004 79.7236 72.7024 79.8047 71.3303C79.6583 70.7182 79.541 69.8196 79.6797 69.0525C79.7518 68.654 79.8999 68.2497 80.1895 67.9478C80.4929 67.6314 80.9131 67.4678 81.4334 67.4956L81.4412 67.4956L81.4417 67.4961C83.6452 67.6588 84.9881 68.4095 85.669 69.377C86.3466 70.34 86.3226 71.4613 85.894 72.2259ZM82.3429 73.0492C83.4043 73.2494 84.5916 72.911 85.1952 71.8345C85.4736 71.3378 85.5142 70.5484 85.0144 69.8381C84.5184 69.1332 83.4437 68.4481 81.3903 68.295L81.2786 68.2939C81.0315 68.3023 80.8764 68.3875 80.7672 68.5012C80.6286 68.6457 80.5248 68.8781 80.4676 69.1945C80.3525 69.8307 80.4552 70.6411 80.5953 71.1998L80.6119 71.265L80.6058 71.333C80.5336 72.135 81.2478 72.8425 82.3429 73.0492Z" fill="#FF9595"/>
<path id="Vector 69" d="M86.3756 21.8828C84.9836 22.2747 83.5821 24.4924 86.3741 27.729C87.4909 28.9717 89.0108 27.2112 89.6312 26.1756C91.3374 24.7516 89.1682 21.0966 86.3756 21.8828Z" fill="#FF9595"/>
<path id="Vector 69 (Stroke)" d="M86.265 21.4976C87.8696 21.0459 89.2723 21.8806 90.0196 22.9754C90.7353 24.0242 90.965 25.5238 89.9375 26.4368C89.6082 26.9731 89.0557 27.6914 88.4151 28.1358C88.0824 28.3666 87.6918 28.5477 87.2736 28.5564C86.8353 28.5656 86.4225 28.3842 86.0742 27.9966L86.0687 27.9911V27.9904C84.6256 26.3172 84.2069 24.8368 84.4096 23.6712C84.6114 22.5111 85.4212 21.7353 86.265 21.4976ZM89.3581 23.4265C88.7492 22.5344 87.6703 21.9341 86.4823 22.2686C85.9342 22.4229 85.3474 22.9524 85.1985 23.8081C85.0507 24.6572 85.3262 25.9016 86.67 27.4618L86.7482 27.5416C86.9289 27.7104 87.0988 27.7598 87.2564 27.7566C87.4565 27.7524 87.6942 27.6615 87.9585 27.4782C88.4897 27.1097 88.9901 26.4641 89.2861 25.97L89.3206 25.9121L89.3729 25.8683C89.9911 25.3523 89.9863 24.347 89.3581 23.4265Z" fill="#FF9595"/>
<path id="Vector 70" d="M108.913 46.1768C110.174 46.884 112.733 46.3069 113.048 42.044C113.137 40.3756 110.817 40.5457 109.646 40.8393C107.433 40.6398 106.382 44.7581 108.913 46.1768Z" fill="#FF9595"/>
<path id="Vector 70 (Stroke)" d="M108.716 46.5264C107.262 45.7111 106.86 44.1291 107.106 42.8265C107.341 41.5788 108.239 40.356 109.611 40.437C110.223 40.2906 111.122 40.1734 111.889 40.3121C112.288 40.3841 112.692 40.5323 112.994 40.8218C113.31 41.1252 113.474 41.5455 113.446 42.0658L113.446 42.0735L113.445 42.0741C113.283 44.2776 112.532 45.6205 111.565 46.3014C110.602 46.979 109.48 46.9549 108.716 46.5264ZM107.892 42.9753C107.692 44.0367 108.031 45.224 109.107 45.8275C109.604 46.106 110.393 46.1465 111.103 45.6468C111.808 45.1508 112.493 44.0761 112.647 42.0227L112.648 41.911C112.639 41.6638 112.554 41.5088 112.44 41.3996C112.296 41.261 112.063 41.1572 111.747 41.0999C111.111 40.9849 110.3 41.0875 109.742 41.2276L109.677 41.2442L109.609 41.2381C108.807 41.166 108.099 41.8802 107.892 42.9753Z" fill="#FF9595"/>
<path id="Vector 53 (Stroke)" d="M54.6674 246.563C50.4864 246.884 44.2254 246.317 39.04 243.488C36.4304 242.064 34.0683 240.052 32.4065 237.273C32.1713 236.879 31.9519 236.472 31.7474 236.05C30.6782 239.753 28.649 242.365 26.152 244.102C21.9623 247.018 16.7112 247.296 13.2645 246.552L12.5853 246.406L12.3739 245.745C11.5991 243.322 12.0484 240.946 13.1631 238.788C14.268 236.648 16.0501 234.666 18.0646 232.919C21.827 229.655 26.6077 227.034 30.0372 225.591L30.0389 225.538L30.1616 225.539C30.3609 225.456 30.5552 225.376 30.7445 225.301L32.2133 224.722L32.3054 225.585C36.282 225.783 41.7244 226.853 46.372 229.533C51.5199 232.501 55.741 237.487 55.7761 245.36L55.7811 246.477L54.6674 246.563ZM14.4913 244.336C17.4384 244.789 21.5404 244.385 24.7796 242.13C27.6114 240.159 29.9588 236.648 30.154 230.589C30.0562 229.837 29.9972 229.054 29.9793 228.24C26.8421 229.666 22.8251 231.969 19.6384 234.733C17.749 236.372 16.2103 238.122 15.2974 239.89C14.5162 241.403 14.2141 242.885 14.4913 244.336ZM53.3337 244.226C52.9301 238.057 49.4956 234.107 45.1721 231.614C41.0578 229.242 36.1795 228.228 32.5198 228.002C32.5678 228.851 32.5799 229.667 32.5605 230.45C32.8679 232.648 33.5422 234.493 34.4676 236.04C35.8688 238.384 37.8814 240.119 40.1906 241.379C44.4031 243.677 49.5202 244.342 53.3337 244.226Z" fill="#FF9595"/>
<path id="Vector 118 (Stroke)" d="M236.409 57.6482C236.592 53.4691 235.82 47.2457 232.829 42.1685C231.324 39.6133 229.241 37.3237 226.415 35.758C226.017 35.5375 225.605 35.3336 225.18 35.1443C228.834 33.9562 231.369 31.848 233.019 29.3026C235.789 25.0291 235.894 19.7843 235.039 16.372L234.87 15.6983L234.201 15.5088C231.76 14.8157 229.406 15.3422 227.29 16.5247C225.193 17.6967 223.275 19.5382 221.599 21.6042C218.469 25.462 216.013 30.3137 214.687 33.7802L214.633 33.7833L214.638 33.9076C214.562 34.1089 214.489 34.305 214.421 34.4961L213.89 35.9837L214.756 36.0467C215.085 40.0047 216.33 45.3945 219.153 49.9394C222.282 54.9746 227.392 59.0201 235.243 58.7966L236.36 58.7648L236.409 57.6482ZM232.864 17.6708C233.412 20.5932 233.143 24.6943 231.003 27.9962C229.132 30.8833 225.709 33.3384 219.675 33.7317C218.924 33.6591 218.143 33.6254 217.332 33.6341C218.651 30.4605 220.814 26.3832 223.464 23.1174C225.036 21.1802 226.73 19.5891 228.462 18.6212C229.943 17.7933 231.409 17.443 232.864 17.6708ZM234.029 56.3928C227.868 56.1921 223.82 52.8983 221.193 48.6712C218.694 44.649 217.524 39.8214 217.178 36.181C218.024 36.2009 218.835 36.1866 219.612 36.1419C221.815 36.3758 223.677 36.9872 225.251 37.8592C227.633 39.1788 229.428 41.127 230.76 43.3872C233.188 47.5097 234.019 52.5879 234.029 56.3928Z" fill="#FF9595"/>
</g>
</svg>
